<svg xmlns="http://www.w3.org/2000/svg" xmlns:xlink="http://www.w3.org/1999/xlink" width="874" zoomAndPan="magnify" viewBox="0 0 655.5 397.499983" height="530" preserveAspectRatio="xMidYMid meet" version="1.0"><defs><g/><clipPath id="7e4dc941e6"><path d="M 0.160156 0 L 654.839844 0 L 654.839844 397 L 0.160156 397 Z M 0.160156 0 " clip-rule="nonzero"/></clipPath></defs><g clip-path="url(#7e4dc941e6)"><path fill="#ffffff" d="M 0.160156 0 L 654.839844 0 L 654.839844 397 L 0.160156 397 Z M 0.160156 0 " fill-opacity="1" fill-rule="nonzero"/><path fill="#121212" d="M 0.160156 0 L 654.839844 0 L 654.839844 397 L 0.160156 397 Z M 0.160156 0 " fill-opacity="1" fill-rule="nonzero"/></g><g fill="#ffffff" fill-opacity="1"><g transform="translate(125.968375, 220.972029)"><g><path d="M 2.515625 -16.890625 L 22.140625 -16.890625 C 22.484375 -15.890625 23.46875 -15.039062 25.09375 -14.34375 C 26.726562 -13.644531 28.921875 -13.113281 31.671875 -12.75 C 34.429688 -12.394531 37.632812 -12.21875 41.28125 -12.21875 C 44.875 -12.21875 47.710938 -12.328125 49.796875 -12.546875 C 51.878906 -12.765625 53.351562 -13.148438 54.21875 -13.703125 C 55.082031 -14.253906 55.515625 -15.007812 55.515625 -15.96875 C 55.515625 -16.875 54.816406 -17.578125 53.421875 -18.078125 C 52.035156 -18.585938 49.566406 -18.9375 46.015625 -19.125 C 42.472656 -19.320312 37.488281 -19.421875 31.0625 -19.421875 C 26.269531 -19.421875 22.132812 -19.644531 18.65625 -20.09375 C 15.1875 -20.550781 12.335938 -21.269531 10.109375 -22.25 C 7.878906 -23.238281 6.234375 -24.488281 5.171875 -26 C 4.117188 -27.507812 3.59375 -29.316406 3.59375 -31.421875 C 3.59375 -35.066406 4.828125 -38.070312 7.296875 -40.4375 C 9.765625 -42.8125 13.503906 -44.585938 18.515625 -45.765625 C 23.523438 -46.941406 29.789062 -47.53125 37.3125 -47.53125 C 48.34375 -47.53125 56.769531 -45.9375 62.59375 -42.75 C 68.414062 -39.5625 71.328125 -34.972656 71.328125 -28.984375 L 52.703125 -28.984375 C 52.460938 -30.554688 50.976562 -31.765625 48.25 -32.609375 C 45.519531 -33.453125 41.632812 -33.875 36.59375 -33.875 C 31.613281 -33.875 27.910156 -33.582031 25.484375 -33 C 23.066406 -32.425781 21.859375 -31.445312 21.859375 -30.0625 C 21.859375 -29.34375 22.191406 -28.765625 22.859375 -28.328125 C 23.535156 -27.898438 24.695312 -27.550781 26.34375 -27.28125 C 28 -27.019531 30.335938 -26.84375 33.359375 -26.75 C 36.378906 -26.65625 40.21875 -26.609375 44.875 -26.609375 C 50 -26.609375 54.359375 -26.351562 57.953125 -25.84375 C 61.546875 -25.34375 64.457031 -24.585938 66.6875 -23.578125 C 68.914062 -22.578125 70.535156 -21.296875 71.546875 -19.734375 C 72.554688 -18.179688 73.0625 -16.347656 73.0625 -14.234375 C 73.0625 -10.585938 71.910156 -7.613281 69.609375 -5.3125 C 67.304688 -3.019531 63.660156 -1.320312 58.671875 -0.21875 C 53.691406 0.882812 47.171875 1.4375 39.109375 1.4375 C 34.554688 1.4375 30.375 1.171875 26.5625 0.640625 C 22.757812 0.117188 19.367188 -0.65625 16.390625 -1.6875 C 13.421875 -2.71875 10.90625 -3.988281 8.84375 -5.5 C 6.78125 -7.007812 5.207031 -8.710938 4.125 -10.609375 C 3.050781 -12.503906 2.515625 -14.597656 2.515625 -16.890625 Z M 2.515625 -16.890625 "/></g></g></g><g fill="#ffffff" fill-opacity="1"><g transform="translate(201.904822, 220.972029)"><g><path d="M 0.359375 -35.234375 L 18.703125 -35.234375 L 39.6875 -1.4375 L 24.8125 0 Z M 66.515625 -35.234375 L 31.5 14.375 L 13.875 14.375 L 28.90625 -5.96875 L 48.171875 -35.234375 Z M 66.515625 -35.234375 "/></g></g></g><g fill="#ffffff" fill-opacity="1"><g transform="translate(268.78066, 220.972029)"><g><path d="M 2.875 -12.65625 L 18.765625 -12.65625 C 19.441406 -11.40625 20.722656 -10.539062 22.609375 -10.0625 C 24.503906 -9.582031 27.226562 -9.34375 30.78125 -9.34375 C 33.507812 -9.34375 35.53125 -9.484375 36.84375 -9.765625 C 38.164062 -10.054688 39.03125 -10.441406 39.4375 -10.921875 C 39.84375 -11.410156 40.046875 -11.914062 40.046875 -12.4375 C 40.046875 -13.25 39.601562 -13.8125 38.71875 -14.125 C 37.832031 -14.4375 36.332031 -14.628906 34.21875 -14.703125 C 32.113281 -14.773438 29.21875 -14.8125 25.53125 -14.8125 C 22.03125 -14.8125 18.898438 -14.96875 16.140625 -15.28125 C 13.390625 -15.59375 11.050781 -16.09375 9.125 -16.78125 C 7.207031 -17.476562 5.742188 -18.453125 4.734375 -19.703125 C 3.734375 -20.953125 3.234375 -22.507812 3.234375 -24.375 C 3.234375 -26.675781 3.972656 -28.601562 5.453125 -30.15625 C 6.941406 -31.71875 8.957031 -32.941406 11.5 -33.828125 C 14.039062 -34.710938 16.976562 -35.347656 20.3125 -35.734375 C 23.644531 -36.117188 27.132812 -36.3125 30.78125 -36.3125 C 36.820312 -36.3125 41.757812 -35.695312 45.59375 -34.46875 C 49.425781 -33.25 52.253906 -31.609375 54.078125 -29.546875 C 55.898438 -27.492188 56.785156 -25.171875 56.734375 -22.578125 L 41.28125 -22.578125 C 40.75 -23.828125 39.75 -24.691406 38.28125 -25.171875 C 36.820312 -25.648438 34.320312 -25.890625 30.78125 -25.890625 C 27.425781 -25.890625 24.992188 -25.632812 23.484375 -25.125 C 21.972656 -24.625 21.21875 -23.820312 21.21875 -22.71875 C 21.21875 -22 21.585938 -21.457031 22.328125 -21.09375 C 23.066406 -20.738281 24.476562 -20.488281 26.5625 -20.34375 C 28.65625 -20.207031 31.710938 -20.140625 35.734375 -20.140625 C 38.515625 -20.140625 41.234375 -20.039062 43.890625 -19.84375 C 46.554688 -19.65625 48.957031 -19.25 51.09375 -18.625 C 53.226562 -18 54.914062 -17.039062 56.15625 -15.75 C 57.40625 -14.457031 58.03125 -12.679688 58.03125 -10.421875 C 58.03125 -7.691406 56.914062 -5.472656 54.6875 -3.765625 C 52.457031 -2.066406 49.300781 -0.832031 45.21875 -0.0625 C 41.144531 0.695312 36.332031 1.078125 30.78125 1.078125 C 25.9375 1.078125 21.847656 0.765625 18.515625 0.140625 C 15.179688 -0.484375 12.457031 -1.3125 10.34375 -2.34375 C 8.238281 -3.375 6.625 -4.5 5.5 -5.71875 C 4.375 -6.9375 3.628906 -8.15625 3.265625 -9.375 C 2.910156 -10.601562 2.78125 -11.695312 2.875 -12.65625 Z M 2.875 -12.65625 "/></g></g></g><g fill="#ffffff" fill-opacity="1"><g transform="translate(329.328472, 220.972029)"><g><path d="M 68.953125 -15.3125 C 68.953125 -11.863281 67.875 -8.914062 65.71875 -6.46875 C 63.5625 -4.019531 60.15625 -2.148438 55.5 -0.859375 C 50.851562 0.429688 44.816406 1.078125 37.390625 1.078125 C 29.960938 1.078125 23.644531 0.476562 18.4375 -0.71875 C 13.238281 -1.914062 9.285156 -3.878906 6.578125 -6.609375 C 3.867188 -9.347656 2.515625 -12.992188 2.515625 -17.546875 C 2.515625 -22.097656 3.867188 -25.75 6.578125 -28.5 C 9.285156 -31.257812 13.238281 -33.25 18.4375 -34.46875 C 23.644531 -35.695312 29.960938 -36.3125 37.390625 -36.3125 C 44.816406 -36.3125 50.832031 -35.664062 55.4375 -34.375 C 60.039062 -33.082031 63.421875 -31.210938 65.578125 -28.765625 C 67.734375 -26.316406 68.835938 -23.390625 68.890625 -19.984375 L 53.0625 -19.984375 C 52.300781 -21.859375 50.578125 -23.3125 47.890625 -24.34375 C 45.203125 -25.375 41.703125 -25.890625 37.390625 -25.890625 C 33.890625 -25.890625 30.84375 -25.632812 28.25 -25.125 C 25.664062 -24.625 23.664062 -23.773438 22.25 -22.578125 C 20.84375 -21.378906 20.140625 -19.703125 20.140625 -17.546875 C 20.140625 -15.429688 20.832031 -13.773438 22.21875 -12.578125 C 23.601562 -11.378906 25.585938 -10.539062 28.171875 -10.0625 C 30.765625 -9.582031 33.835938 -9.34375 37.390625 -9.34375 C 41.703125 -9.34375 45.210938 -9.859375 47.921875 -10.890625 C 50.628906 -11.921875 52.367188 -13.394531 53.140625 -15.3125 Z M 68.953125 -15.3125 "/></g></g></g><g fill="#ffffff" fill-opacity="1"><g transform="translate(400.806519, 220.972029)"><g><path d="M 29.34375 1 C 24.164062 1 19.5625 0.269531 15.53125 -1.1875 C 11.5 -2.644531 8.320312 -4.765625 6 -7.546875 C 3.675781 -10.328125 2.515625 -13.679688 2.515625 -17.609375 C 2.515625 -21.734375 3.675781 -25.1875 6 -27.96875 C 8.320312 -30.75 11.5 -32.832031 15.53125 -34.21875 C 19.5625 -35.613281 24.164062 -36.3125 29.34375 -36.3125 C 35.09375 -36.3125 40.0625 -35.53125 44.25 -33.96875 C 48.445312 -32.414062 51.679688 -30.234375 53.953125 -27.421875 C 56.234375 -24.617188 57.375 -21.347656 57.375 -17.609375 C 57.375 -14.835938 56.726562 -12.3125 55.4375 -10.03125 C 54.144531 -7.75 52.273438 -5.78125 49.828125 -4.125 C 47.378906 -2.476562 44.429688 -1.210938 40.984375 -0.328125 C 37.535156 0.554688 33.65625 1 29.34375 1 Z M 35.8125 -9.921875 C 39.457031 -9.921875 42.800781 -10.148438 45.84375 -10.609375 C 48.882812 -11.066406 51.328125 -11.84375 53.171875 -12.9375 C 55.015625 -14.039062 55.9375 -15.597656 55.9375 -17.609375 C 55.9375 -19.671875 55.015625 -21.253906 53.171875 -22.359375 C 51.328125 -23.460938 48.882812 -24.226562 45.84375 -24.65625 C 42.800781 -25.09375 39.457031 -25.3125 35.8125 -25.3125 C 30.914062 -25.3125 27.125 -24.675781 24.4375 -23.40625 C 21.757812 -22.132812 20.421875 -20.203125 20.421875 -17.609375 C 20.421875 -15.929688 21.019531 -14.519531 22.21875 -13.375 C 23.414062 -12.226562 25.164062 -11.363281 27.46875 -10.78125 C 29.769531 -10.207031 32.550781 -9.921875 35.8125 -9.921875 Z M 55.9375 -35.234375 L 73.203125 -35.234375 L 73.203125 0 L 56.953125 0 C 56.953125 0 56.867188 -0.550781 56.703125 -1.65625 C 56.535156 -2.757812 56.363281 -4.335938 56.1875 -6.390625 C 56.019531 -8.453125 55.9375 -10.875 55.9375 -13.65625 Z M 55.9375 -35.234375 "/></g></g></g><g fill="#ffffff" fill-opacity="1"><g transform="translate(477.246319, 220.972029)"><g><path d="M 4.3125 -49.609375 L 21.578125 -49.609375 L 21.578125 0 L 4.3125 0 Z M 4.3125 -49.609375 "/></g></g></g><g fill="#ffffff" fill-opacity="1"><g transform="translate(503.133752, 220.972029)"><g><path d="M 4.3125 -49.609375 L 21.578125 -49.609375 L 21.578125 0 L 4.3125 0 Z M 4.3125 -49.609375 "/></g></g></g></svg>